<mxfile host="app.diagrams.net" modified="2020-10-26T10:03:14.157Z" agent="5.0 (Macintosh; Intel Mac OS X 10_15_5) AppleWebKit/537.36 (KHTML, like Gecko) Chrome/83.0.4103.106 Safari/537.36" etag="yzIi4gcBxxj-Exl-L6zW" version="13.8.2" type="github">
  <diagram id="R2lEEEUBdFMjLlhIrx00" name="Page-1">
    <mxGraphModel dx="1426" dy="735" grid="1" gridSize="10" guides="1" tooltips="1" connect="1" arrows="1" fold="1" page="1" pageScale="1" pageWidth="850" pageHeight="1100" math="0" shadow="0" extFonts="Permanent Marker^https://fonts.googleapis.com/css?family=Permanent+Marker">
      <root>
        <mxCell id="0" />
        <mxCell id="1" parent="0" />
        <mxCell id="rZfKJarHak6PZLFS8SUh-1" value="工作流" style="rounded=1;whiteSpace=wrap;html=1;" vertex="1" parent="1">
          <mxGeometry x="180" y="140" width="120" height="340" as="geometry" />
        </mxCell>
        <mxCell id="rZfKJarHak6PZLFS8SUh-2" value="" style="endArrow=classic;html=1;exitX=1;exitY=0.5;exitDx=0;exitDy=0;entryX=0;entryY=0.5;entryDx=0;entryDy=0;" edge="1" parent="1">
          <mxGeometry width="50" height="50" relative="1" as="geometry">
            <mxPoint x="297.5" y="339.5" as="sourcePoint" />
            <mxPoint x="422.5" y="339.5" as="targetPoint" />
          </mxGeometry>
        </mxCell>
        <mxCell id="rZfKJarHak6PZLFS8SUh-3" value="" style="endArrow=classic;html=1;entryX=0;entryY=0.5;entryDx=0;entryDy=0;" edge="1" parent="1" target="rZfKJarHak6PZLFS8SUh-1">
          <mxGeometry width="50" height="50" relative="1" as="geometry">
            <mxPoint x="50" y="309.5" as="sourcePoint" />
            <mxPoint x="150" y="309.5" as="targetPoint" />
          </mxGeometry>
        </mxCell>
        <mxCell id="rZfKJarHak6PZLFS8SUh-4" value="用户" style="shape=umlActor;verticalLabelPosition=bottom;verticalAlign=top;html=1;outlineConnect=0;" vertex="1" parent="1">
          <mxGeometry x="20" y="280" width="30" height="60" as="geometry" />
        </mxCell>
        <mxCell id="rZfKJarHak6PZLFS8SUh-5" value="Job" style="text;html=1;align=center;verticalAlign=middle;resizable=0;points=[];autosize=1;" vertex="1" parent="1">
          <mxGeometry x="100" y="280" width="30" height="20" as="geometry" />
        </mxCell>
        <mxCell id="rZfKJarHak6PZLFS8SUh-6" value="任务调度系统" style="rounded=1;whiteSpace=wrap;html=1;" vertex="1" parent="1">
          <mxGeometry x="425" y="140" width="120" height="340" as="geometry" />
        </mxCell>
        <mxCell id="rZfKJarHak6PZLFS8SUh-7" value="" style="endArrow=classic;html=1;exitX=1;exitY=0.5;exitDx=0;exitDy=0;entryX=0;entryY=0.5;entryDx=0;entryDy=0;" edge="1" parent="1">
          <mxGeometry width="50" height="50" relative="1" as="geometry">
            <mxPoint x="297.5" y="269.5" as="sourcePoint" />
            <mxPoint x="422.5" y="269.5" as="targetPoint" />
          </mxGeometry>
        </mxCell>
        <mxCell id="rZfKJarHak6PZLFS8SUh-8" value="" style="endArrow=classic;html=1;exitX=1;exitY=0.5;exitDx=0;exitDy=0;entryX=0;entryY=0.5;entryDx=0;entryDy=0;" edge="1" parent="1">
          <mxGeometry width="50" height="50" relative="1" as="geometry">
            <mxPoint x="297.5" y="409.5" as="sourcePoint" />
            <mxPoint x="422.5" y="409.5" as="targetPoint" />
          </mxGeometry>
        </mxCell>
        <mxCell id="rZfKJarHak6PZLFS8SUh-9" value="task1" style="text;html=1;align=center;verticalAlign=middle;resizable=0;points=[];autosize=1;" vertex="1" parent="1">
          <mxGeometry x="337.5" y="239.5" width="40" height="20" as="geometry" />
        </mxCell>
        <mxCell id="rZfKJarHak6PZLFS8SUh-10" value="task2" style="text;html=1;align=center;verticalAlign=middle;resizable=0;points=[];autosize=1;" vertex="1" parent="1">
          <mxGeometry x="337.5" y="309.5" width="40" height="20" as="geometry" />
        </mxCell>
        <mxCell id="rZfKJarHak6PZLFS8SUh-11" value="task3" style="text;html=1;align=center;verticalAlign=middle;resizable=0;points=[];autosize=1;" vertex="1" parent="1">
          <mxGeometry x="337.5" y="379.5" width="40" height="20" as="geometry" />
        </mxCell>
        <mxCell id="rZfKJarHak6PZLFS8SUh-18" style="edgeStyle=orthogonalEdgeStyle;rounded=0;orthogonalLoop=1;jettySize=auto;html=1;exitX=1;exitY=0.5;exitDx=0;exitDy=0;entryX=0.5;entryY=1;entryDx=0;entryDy=0;" edge="1" parent="1" source="rZfKJarHak6PZLFS8SUh-12" target="rZfKJarHak6PZLFS8SUh-1">
          <mxGeometry relative="1" as="geometry">
            <Array as="points">
              <mxPoint x="760" y="310" />
              <mxPoint x="760" y="550" />
              <mxPoint x="240" y="550" />
            </Array>
          </mxGeometry>
        </mxCell>
        <mxCell id="rZfKJarHak6PZLFS8SUh-12" value="agent1" style="rounded=1;whiteSpace=wrap;html=1;" vertex="1" parent="1">
          <mxGeometry x="600" y="285" width="120" height="50" as="geometry" />
        </mxCell>
        <mxCell id="rZfKJarHak6PZLFS8SUh-13" value="" style="endArrow=classic;html=1;" edge="1" parent="1">
          <mxGeometry width="50" height="50" relative="1" as="geometry">
            <mxPoint x="545" y="310" as="sourcePoint" />
            <mxPoint x="600" y="310" as="targetPoint" />
          </mxGeometry>
        </mxCell>
        <mxCell id="rZfKJarHak6PZLFS8SUh-19" value="callback" style="text;html=1;align=center;verticalAlign=middle;resizable=0;points=[];autosize=1;" vertex="1" parent="1">
          <mxGeometry x="480" y="520" width="60" height="20" as="geometry" />
        </mxCell>
        <mxCell id="rZfKJarHak6PZLFS8SUh-27" value="" style="endArrow=classic;html=1;exitX=1;exitY=0.5;exitDx=0;exitDy=0;entryX=0;entryY=0.5;entryDx=0;entryDy=0;" edge="1" parent="1">
          <mxGeometry width="50" height="50" relative="1" as="geometry">
            <mxPoint x="297.5" y="209.5" as="sourcePoint" />
            <mxPoint x="422.5" y="209.5" as="targetPoint" />
          </mxGeometry>
        </mxCell>
        <mxCell id="rZfKJarHak6PZLFS8SUh-28" value="pre-task" style="text;html=1;align=center;verticalAlign=middle;resizable=0;points=[];autosize=1;" vertex="1" parent="1">
          <mxGeometry x="327.5" y="180" width="60" height="20" as="geometry" />
        </mxCell>
        <mxCell id="rZfKJarHak6PZLFS8SUh-37" value="1" style="ellipse;whiteSpace=wrap;html=1;aspect=fixed;strokeWidth=2;fontFamily=Tahoma;spacingBottom=4;spacingRight=2;strokeColor=#d3d3d3;" vertex="1" parent="1">
          <mxGeometry x="80" y="280" width="20" height="20" as="geometry" />
        </mxCell>
        <mxCell id="rZfKJarHak6PZLFS8SUh-38" value="2" style="ellipse;whiteSpace=wrap;html=1;aspect=fixed;strokeWidth=2;fontFamily=Tahoma;spacingBottom=4;spacingRight=2;strokeColor=#d3d3d3;" vertex="1" parent="1">
          <mxGeometry x="308" y="180" width="20" height="20" as="geometry" />
        </mxCell>
        <mxCell id="rZfKJarHak6PZLFS8SUh-39" value="3" style="ellipse;whiteSpace=wrap;html=1;aspect=fixed;strokeWidth=2;fontFamily=Tahoma;spacingBottom=4;spacingRight=2;strokeColor=#d3d3d3;" vertex="1" parent="1">
          <mxGeometry x="560" y="280" width="20" height="20" as="geometry" />
        </mxCell>
        <mxCell id="rZfKJarHak6PZLFS8SUh-40" value="4" style="ellipse;whiteSpace=wrap;html=1;aspect=fixed;strokeWidth=2;fontFamily=Tahoma;spacingBottom=4;spacingRight=2;strokeColor=#d3d3d3;" vertex="1" parent="1">
          <mxGeometry x="460" y="520" width="20" height="20" as="geometry" />
        </mxCell>
        <mxCell id="rZfKJarHak6PZLFS8SUh-41" value="5" style="ellipse;whiteSpace=wrap;html=1;aspect=fixed;strokeWidth=2;fontFamily=Tahoma;spacingBottom=4;spacingRight=2;strokeColor=#d3d3d3;" vertex="1" parent="1">
          <mxGeometry x="308" y="240" width="20" height="20" as="geometry" />
        </mxCell>
        <mxCell id="rZfKJarHak6PZLFS8SUh-42" value="6" style="ellipse;whiteSpace=wrap;html=1;aspect=fixed;strokeWidth=2;fontFamily=Tahoma;spacingBottom=4;spacingRight=2;strokeColor=#d3d3d3;" vertex="1" parent="1">
          <mxGeometry x="560" y="320" width="20" height="20" as="geometry" />
        </mxCell>
        <mxCell id="rZfKJarHak6PZLFS8SUh-43" value="5" style="ellipse;whiteSpace=wrap;html=1;aspect=fixed;strokeWidth=2;fontFamily=Tahoma;spacingBottom=4;spacingRight=2;strokeColor=#d3d3d3;" vertex="1" parent="1">
          <mxGeometry x="308" y="309.5" width="20" height="20" as="geometry" />
        </mxCell>
        <mxCell id="rZfKJarHak6PZLFS8SUh-44" value="5" style="ellipse;whiteSpace=wrap;html=1;aspect=fixed;strokeWidth=2;fontFamily=Tahoma;spacingBottom=4;spacingRight=2;strokeColor=#d3d3d3;" vertex="1" parent="1">
          <mxGeometry x="308" y="379.5" width="20" height="20" as="geometry" />
        </mxCell>
      </root>
    </mxGraphModel>
  </diagram>
</mxfile>
